<svg xmlns="http://www.w3.org/2000/svg" viewBox="0 0 36 36">
	<circle fill="#FFCC4D" cx="18" cy="18" r="18" />
	<path fill="#5DADEC"
		d="M23.777.345c-1.212-.094-2.473-.159-3.773-.19C19.343.139 18.676.129 18 .129c-.672 0-1.336.01-1.993.025-1.302.031-2.564.096-3.777.19C5.34.88.169 2.451.169 5.287c0 3.588 8.264 5.771 17.831 5.771s17.831-2.183 17.831-5.771c0-2.835-5.168-4.405-12.054-4.942zM18 7.383c-6.861 0-12.91-.833-12.91-2.736 0-.536.494-1.023 1.339-1.449 1.153-.581 2.978-1.044 5.189-1.349 1.911-.262 4.098-.41 6.382-.41 2.291 0 4.485.148 6.4.413 2.242.31 4.086.783 5.232 1.377.807.418 1.278.894 1.278 1.418 0 1.903-6.049 2.736-12.91 2.736z" />
</svg>