<svg xmlns="http://www.w3.org/2000/svg" viewBox="0 0 36 36">

	<circle fill="#F4F7F9" cx="24.882" cy="14.294" r="6.882" />
	<path fill="#292F33"
		d="M32.824 36c-.585 0-1.059-.474-1.059-1.059V14.824c0-.585.474-1.059 1.059-1.059s1.059.474 1.059 1.059v20.118c-.001.584-.474 1.058-1.059 1.058z" />
	<path fill="#67757F"
		d="M32.824 12.706c-.054 0-.105.012-.158.016-.732-3.628-3.943-6.369-7.784-6.369-4.379 0-7.941 3.562-7.941 7.941s3.562 7.941 7.941 7.941c3.468 0 6.416-2.238 7.496-5.343.144.031.292.049.445.049 1.17 0 2.118-.948 2.118-2.118 0-1.169-.948-2.117-2.117-2.117zm-7.942 7.412c-3.211 0-5.823-2.612-5.823-5.824s2.613-5.824 5.823-5.824c3.211 0 5.824 2.612 5.824 5.824s-2.613 5.824-5.824 5.824z" />
	<path
		d="M28.049 9.411c-.912-.593-1.998-.94-3.167-.94-3.216 0-5.824 2.607-5.824 5.824 0 1.169.348 2.255.94 3.167l8.051-8.051zm-5.652 10.144c.755.357 1.595.563 2.485.563 3.216 0 5.824-2.607 5.824-5.824 0-.89-.206-1.731-.563-2.485l-7.746 7.746z"
		fill="#BDDDF4" /></svg>