<svg xmlns="http://www.w3.org/2000/svg" viewBox="0 0 36 36"><path fill="#E1E8ED" d="M7.65 29s-3.641-3-4.641-11.5c-.234-1.986 1.696-1.977 2 0C6.01 24 11.359 28 14 30c2.255 1.708-6.35-1-6.35-1zm20.7 0s3.641-3 4.641-11.5c.234-1.986-1.695-1.977-2 0C29.99 24 24.641 28 22 30c-2.255 1.708 6.35-1 6.35-1z"/><path d="M29 29c0 1.104-3.82 3-11 3S7 30.104 7 29s3.82 1 11 1 11-2.104 11-1z"/><path fill="#662113" d="M28 23.125c0 4.487-3.097 9.375-10 9.375-6.904 0-10-4.888-10-9.375S11.096 17.5 18 17.5c6.903 0 10 1.138 10 5.625z"/><path fill="#C1694F" d="M15 24.6c0 1.857-.34 2.4-1.5 2.4s-1.5-.543-1.5-2.4c0-1.856.34-2.399 1.5-2.399s1.5.542 1.5 2.399zm9 0c0 1.857-.34 2.4-1.5 2.4s-1.5-.543-1.5-2.4c0-1.856.34-2.399 1.5-2.399s1.5.542 1.5 2.399z"/></svg>