<svg xmlns="http://www.w3.org/2000/svg" viewBox="0 0 36 36"><path fill="#FEE7B8" d="M2.201 30.458a.5.5 0 0 1-.31-.892c.162-.127 4.02-3.12 10.648-2.605a.5.5 0 0 1 .46.536c-.021.275-.257.501-.537.46-6.233-.474-9.915 2.366-9.951 2.395a.516.516 0 0 1-.31.106zm8.868-4.663a.512.512 0 0 1-.149-.022c-4.79-1.497-8.737-.347-8.777-.336a.499.499 0 1 1-.288-.957c.173-.052 4.286-1.247 9.362.338a.5.5 0 0 1-.148.977zm22.73 4.663a.5.5 0 0 0 .31-.892c-.162-.127-4.02-3.12-10.648-2.605a.5.5 0 0 0-.46.536c.022.275.257.501.537.46 6.233-.474 9.915 2.366 9.951 2.395.093.07.202.106.31.106zm-8.868-4.663c.049 0 .1-.007.149-.022 4.79-1.497 8.737-.347 8.777-.336a.499.499 0 1 0 .288-.957c-.173-.052-4.286-1.247-9.362.338a.5.5 0 0 0 .148.977z"/><path fill="#67757F" d="M24.736 30.898a.5.5 0 0 0-.643-.294c-.552.206-1.076.311-1.559.311-1.152 0-1.561-.306-2.033-.659-.451-.338-.956-.715-1.99-.803v-2.339a.5.5 0 0 0-1 0v2.373c-.81.115-1.346.439-1.816.743-.568.367-1.059.685-2.083.685-.482 0-1.006-.104-1.558-.311a.501.501 0 0 0-.35.938c.664.247 1.306.373 1.907.373 1.319 0 2.014-.449 2.627-.845.524-.339.98-.631 1.848-.635.992.008 1.358.278 1.815.621.538.403 1.147.859 2.633.859.601 0 1.244-.126 1.908-.373a.5.5 0 0 0 .294-.644z"/><path fill="#E75A70" d="M19.4 24.807h-2.8c-.64 0-1.163.523-1.163 1.163 0 .639.523 1.163 1.163 1.163h.237v.345c0 .639.523 1.163 1.163 1.163s1.163-.523 1.163-1.163v-.345h.237c.639 0 1.163-.523 1.163-1.163s-.524-1.163-1.163-1.163z"/></svg>