<svg xmlns="http://www.w3.org/2000/svg" viewBox="0 0 36 36"><path d="M18 28.838a.498.498 0 0 0-.451.29c-.698 1.46-1.607 2.213-2.631 2.546v1.299s0 3 3 3 3-3 3-3V31.62c-.958-.36-1.808-1.112-2.469-2.492a.495.495 0 0 0-.449-.291z" style="fill:#dd2e44;fill-opacity:1"/><path d="M18 28.838a.498.498 0 0 0-.451.29c-.698 1.46-1.607 2.213-2.631 2.546V33.01c1.041-.035 2.017-.275 2.633-1.287a.425.425 0 0 1 .734 0c.616 1.01 1.592 1.252 2.633 1.287V31.62c-.958-.36-1.808-1.112-2.469-2.492a.495.495 0 0 0-.449-.291z" style="fill:#be1931;fill-opacity:1"/></svg>