<svg xmlns="http://www.w3.org/2000/svg" viewBox="0 0 36 36"><path fill="#292F33" d="M25.178 25.622c-.845.445-4.378 1.467-7.178 1.467-3 0-6.508-1.022-7.353-1.467-.844-.444-1.776.344-1.51 1.867.363 2.074 1.253 4.684 3.387 4.195C13.224 31.524 15 30 18 30c3.022 0 4.645 1.524 5.345 1.684 2.133.489 2.893-2.122 3.255-4.195.267-1.523-.578-2.311-1.422-1.867z"/><g fill="#FFF"><path d="m25.721 28.741-.805-3c-1.155.485-4.343 1.348-6.917 1.348-2.835 0-6.12-.912-7.186-1.388l-.815 3.04a1.004 1.004 0 0 0 .707 1.225 1.004 1.004 0 0 0 1.225-.707l.748-2.331c.892.344 3.114.664 5.322.66 2.161-.004 4.308-.324 5.18-.66l.616 2.331a.998.998 0 0 0 1.22.707 1 1 0 0 0 .705-1.225z"/><path d="M22.929 29.906a.751.751 0 0 0-.578-.889.751.751 0 0 0-.889.578l-.119.643c-.351-.19-1.839-.646-3.343-.649-1.553-.003-3.125.454-3.484.649l-.198-.643c-.086-.404-.517-.664-.92-.578-.403.086-.679.486-.593.889l.318 1.514C14.038 30.941 15.632 30 18 30c2.255 0 3.729.847 4.624 1.345l.305-1.439z"/></g><path fill="#A0041E" d="M18 26.5c-1.86 0-2.647-1.005-2.901-1.855-.543.128-1.345.209-1.929-.187-.305-.207-.67-.628-.67-1.458a.5.5 0 0 1 1 0c0 .474.173.591.231.63.373.254 1.229.046 1.585-.095A.5.5 0 0 1 16 24c.003.149.083 1.5 2 1.5 1.978 0 2-1.438 2-1.5 0-.166.082-.32.22-.413a.496.496 0 0 1 .465-.052c.356.142 1.211.35 1.585.095.057-.039.23-.156.23-.63a.5.5 0 0 1 1 0c0 .83-.364 1.251-.671 1.458-.584.396-1.386.314-1.929.187-.253.85-1.041 1.855-2.9 1.855z"/></svg>