<svg xmlns="http://www.w3.org/2000/svg" viewBox="0 0 36 36"><path d="M21.871 27c1.335-.412 2.629-1.156 2.629-2.5 0-2.619-4.912-2.968-5.473-2.999-.277-.036-.51.194-.526.468a.5.5 0 0 0 .464.53c.035.002 3.535.299 3.535 2.001s-3.5 1.999-3.535 2.001c-.01.001-.017.006-.026.007a.437.437 0 0 0-.31.159l-.015.021a.519.519 0 0 0-.073.125c-.011.027-.016.057-.021.086-.005.024-.017.046-.019.07-.001.01.004.02.004.031s-.005.021-.004.031c.002.025.013.046.019.07.006.029.011.059.022.087a.48.48 0 0 0 .051.088c.017.023.03.047.05.067a.457.457 0 0 0 .081.062c.024.017.045.033.071.046a.367.367 0 0 0 .101.027c.023.006.044.018.069.02.035.003 3.535.3 3.535 2.002 0 1.702-3.5 1.999-3.535 2.001A.5.5 0 0 0 19 32.5l.027-.001c.561-.031 5.473-.38 5.473-2.999 0-1.344-1.294-2.088-2.629-2.5Z" style="fill:#664500;fill-opacity:1"/></svg>