<svg xmlns="http://www.w3.org/2000/svg" viewBox="0 0 36 36"><path d="M20.079 27.042c1.335-.412 2.629-1.156 2.629-2.5 0-2.619-4.912-2.968-5.472-2.999a.493.493 0 0 0-.527.468.5.5 0 0 0 .464.53c.035.002 3.535.299 3.535 2.001s-3.5 1.999-3.535 2.001c-.014.001-.024.009-.037.011a.445.445 0 0 0-.146.04l-.019.011a.471.471 0 0 0-.125.098c-.014.015-.024.031-.036.048a.446.446 0 0 0-.059.102c-.012.029-.018.061-.024.092-.004.023-.016.044-.018.067 0 .011.004.021.004.031 0 .01-.005.021-.004.031.001.024.013.045.018.068.006.031.011.061.023.09.013.03.031.057.049.084.017.024.032.05.052.071.023.023.05.041.078.061.024.017.046.034.074.047a.387.387 0 0 0 .101.027c.024.006.044.018.069.02.035.002 3.535.299 3.535 2.001s-3.5 1.999-3.535 2.001a.501.501 0 0 0 .035.999l.028-.001c.56-.031 5.472-.38 5.472-2.999 0-1.345-1.294-2.089-2.629-2.501z" style="fill:#664500;fill-opacity:1"/></svg>