<svg xmlns="http://www.w3.org/2000/svg" viewBox="0 0 36 36"><path fill="#FFF" d="M25 21a4 4 0 0 1 0 8H11a4 4 0 0 1 0-8h14z"/><path fill="#664500" d="M25 20H11c-2.757 0-5 2.243-5 5s2.243 5 5 5h14c2.757 0 5-2.243 5-5s-2.243-5-5-5zm0 2a2.997 2.997 0 0 1 2.949 2.5H24.5V22h.5zm-1.5 0v2.5h-3V22h3zm-4 0v2.5h-3V22h3zm-4 0v2.5h-3V22h3zM11 22h.5v2.5H8.051A2.997 2.997 0 0 1 11 22zm0 6a2.997 2.997 0 0 1-2.949-2.5H11.5V28H11zm1.5 0v-2.5h3V28h-3zm4 0v-2.5h3V28h-3zm4 0v-2.5h3V28h-3zm4.5 0h-.5v-2.5h3.449A2.997 2.997 0 0 1 25 28z"/></svg>