<svg xmlns="http://www.w3.org/2000/svg" viewBox="0 0 36 36"><path fill="#E75A70" d="M18 19.5c3 0 3 .5 3 1.5s-1.5 3-3 3-3-2-3-3-.001-1.5 3-1.5z"/><path fill="#FEE7B8" d="M.701 25a.5.5 0 0 1-.31-.892c.162-.127 4.02-3.12 10.648-2.605.275.02.481.261.46.536-.021.275-.257.501-.537.46-6.233-.474-9.915 2.366-9.951 2.395a.51.51 0 0 1-.31.106zm8.868-4.663a.512.512 0 0 1-.149-.022c-4.79-1.497-8.737-.347-8.777-.336a.499.499 0 1 1-.288-.957c.173-.052 4.286-1.247 9.362.338a.5.5 0 0 1-.148.977zM35.299 25a.5.5 0 0 0 .31-.892c-.162-.127-4.02-3.12-10.648-2.605a.499.499 0 0 0-.46.536c.021.275.257.501.537.46 6.233-.474 9.915 2.366 9.951 2.395a.51.51 0 0 0 .31.106zm-8.868-4.663c.049 0 .1-.007.149-.022 4.79-1.497 8.737-.347 8.777-.336a.499.499 0 1 0 .288-.957c-.173-.052-4.286-1.247-9.362.338a.5.5 0 0 0 .148.977z"/><path fill="#292F33" d="M25.362 30.28C24.879 29.642 21.947 26 18 26c-4.234 0-7.3 4.191-7.428 4.37-.121.167-.085.381.084.516A.556.556 0 0 0 11 31a.57.57 0 0 0 .277-.07c.029-.016 2.918-1.597 6.722-1.597 3.792 0 6.695 1.581 6.723 1.597a.55.55 0 0 0 .281.07c.277-.003.516-.182.516-.417a.382.382 0 0 0-.157-.303z"/></svg>