<svg xmlns="http://www.w3.org/2000/svg" viewBox="0 0 36 36"><path fill="#E75A70" d="M18 19.5c3 0 3 .5 3 1.5s-1.5 3-3 3-3-2-3-3-.001-1.5 3-1.5z"/><path fill="#FEE7B8" d="M.701 25a.5.5 0 0 1-.31-.892c.162-.127 4.02-3.12 10.648-2.605.275.02.481.261.46.536-.021.275-.257.501-.537.46-6.233-.474-9.915 2.366-9.951 2.395a.51.51 0 0 1-.31.106zm8.868-4.663a.512.512 0 0 1-.149-.022c-4.79-1.497-8.737-.347-8.777-.336a.499.499 0 1 1-.288-.957c.173-.052 4.286-1.247 9.362.338a.5.5 0 0 1-.148.977zM35.299 25a.5.5 0 0 0 .31-.892c-.162-.127-4.02-3.12-10.648-2.605a.499.499 0 0 0-.46.536c.021.275.257.501.537.46 6.233-.474 9.915 2.366 9.951 2.395a.51.51 0 0 0 .31.106zm-8.868-4.663c.049 0 .1-.007.149-.022 4.79-1.497 8.737-.347 8.777-.336a.499.499 0 1 0 .288-.957c-.173-.052-4.286-1.247-9.362.338a.5.5 0 0 0 .148.977z"/><path d="M21.871 30c1.335-.412 2.629-1.156 2.629-2.5 0-2.619-4.912-2.968-5.473-2.999-.277-.035-.51.194-.526.468a.5.5 0 0 0 .464.53c.035.002 3.535.299 3.535 2.001s-3.5 1.999-3.535 2.001c-.01.001-.017.006-.027.008a.434.434 0 0 0-.308.157c-.006.007-.011.016-.017.022a.566.566 0 0 0-.072.124c-.011.027-.016.057-.021.086-.005.023-.017.046-.019.07-.001.011.004.021.004.032s-.005.021-.004.031c.002.025.013.046.019.07.006.029.011.059.022.087a.48.48 0 0 0 .051.088c.017.023.03.047.05.067a.457.457 0 0 0 .081.062c.024.017.045.033.071.046a.367.367 0 0 0 .101.027c.023.006.044.018.069.02.035.003 3.535.3 3.535 2.002 0 1.702-3.5 1.999-3.535 2.001A.5.5 0 0 0 19 35.5l.027-.001c.561-.031 5.473-.38 5.473-2.999 0-1.344-1.294-2.088-2.629-2.5Z" style="fill:#292f33;fill-opacity:1"/></svg>