<svg xmlns="http://www.w3.org/2000/svg" viewBox="0 0 36 36"><path fill="#E75A70" d="M18 15c3 0 3 .5 3 1.5s-1.5 3-3 3-3-2-3-3-.001-1.5 3-1.5z"/><path fill="#FEE7B8" d="M11.039 21.502a18.458 18.458 0 0 0-4.762.234c.198.292.386.6.565.924a17.572 17.572 0 0 1 4.12-.162c.28.041.516-.184.537-.46a.5.5 0 0 0-.46-.536zm-1.321-2.143c-4.002-1.25-7.396-.772-8.742-.488.206-.024.421-.042.666-.042.889 0 1.71.26 2.457.722a17.02 17.02 0 0 1 5.321.764.5.5 0 0 0 .298-.956zm20.053 2.386a18.467 18.467 0 0 0-4.809-.243.499.499 0 0 0-.46.536c.021.275.257.501.537.46 1.554-.118 2.95-.03 4.17.169.177-.323.364-.631.562-.922zm2.183-2.194c.747-.462 1.568-.722 2.458-.722.216 0 .403.018.589.037-1.361-.284-4.739-.75-8.718.493a.5.5 0 0 0 .298.956 16.998 16.998 0 0 1 5.373-.764z"/><path fill="#292F33" d="M18 21a4 4 0 0 0-4 4v6a4 4 0 0 0 8 0v-6a4 4 0 0 0-4-4z"/></svg>