<svg xmlns="http://www.w3.org/2000/svg" viewBox="0 0 36 36"><path fill="#664500" d="M7 21.263c0 3.964 4.596 9 11 9s11-5 11-9c0 0-10.333 2.756-22 0z"/><path fill="#5D9040" d="M12 23.003v6.961c0 3 2 6 6 6s6-3 6-6v-6.92c-6.291 1.292-12-.041-12-.041z"/><path fill="#FFF" d="M20.97 31.069c0-1.368-1.379-1.901-2.487-2.329-.737-.284-1.434-.554-1.434-.943 0-.643.861-.675 1.034-.675.609 0 .912.229 1.18.43.205.155.418.315.713.315.55 0 .801-.388.801-.747 0-.717-.879-1.224-1.812-1.437V25.3a.917.917 0 0 0-1.832 0v.415c-1.115.324-1.799 1.145-1.799 2.179 0 1.278 1.261 1.803 2.373 2.265.797.331 1.549.644 1.549 1.132 0 .357-.448.743-1.173.743-.731 0-1.15-.292-1.52-.551-.255-.178-.497-.347-.785-.347-.419 0-.748.354-.748.804 0 .663.907 1.322 2.102 1.554v.459a.916.916 0 0 0 1.832 0l-.003-.486c1.263-.309 2.009-1.193 2.009-2.398z"/></svg>