<svg xmlns="http://www.w3.org/2000/svg" viewBox="0 0 36 36"><path fill="#664500" d="M27.335 23.629a.501.501 0 0 0-.635-.029c-.039.029-3.922 2.9-8.7 2.9-4.766 0-8.662-2.871-8.7-2.9a.5.5 0 0 0-.729.657C8.7 24.472 11.788 29.5 18 29.5s9.301-5.028 9.429-5.243a.499.499 0 0 0-.094-.628z"/><path d="M27.335 23.629a.501.501 0 0 0-.635-.029c-.03.022-2.259 1.668-5.411 2.47-.443.113-1.864.43-3.286.431-1.424 0-2.849-.318-3.292-.431-3.152-.802-5.381-2.448-5.411-2.47a.501.501 0 0 0-.729.657c.097.162 1.885 3.067 5.429 4.481v-1.829c-.016-.004 1.45.378 2.446.486.366.042.737.076 1.117.089.146.005.289.016.437.016.148 0 .291-.011.438-.016.38-.013.751-.046 1.117-.089.996-.108 2.462-.49 2.446-.486v1.829c3.544-1.414 5.332-4.319 5.429-4.481a.5.5 0 0 0-.095-.628z" style="fill:#65471b;fill-opacity:1"/></svg>