<svg xmlns="http://www.w3.org/2000/svg" viewBox="0 0 36 36"><circle fill="#FF7892" cx="6.93" cy="21" r="4"/><circle fill="#FF7892" cx="28.93" cy="21" r="4"/><path fill="#DA2F47" d="M27.335 23.629a.501.501 0 0 0-.635-.029c-.039.029-3.922 2.9-8.7 2.9-4.766 0-8.662-2.871-8.7-2.9a.5.5 0 0 0-.729.657C8.7 24.472 11.788 31 18 31s9.301-6.528 9.429-6.743a.499.499 0 0 0-.094-.628z"/><path fill="none" d="M27.335 23.629a.501.501 0 0 0-.635-.029c-.039.029-3.922 2.9-8.7 2.9-4.766 0-8.662-2.871-8.7-2.9a.5.5 0 0 0-.729.657C8.7 24.472 11.788 31 18 31s9.301-6.528 9.429-6.743a.499.499 0 0 0-.094-.628z"/></svg>