<svg xmlns="http://www.w3.org/2000/svg" viewBox="0 0 36 36"><path d="m15.364 26.122-1.515-2.295c1.154-.762 2.606-1.182 4.089-1.182 1.49 0 2.895.402 4.062 1.162l-1.502 2.305c-1.425-.928-3.721-.924-5.134.01z" style="fill:#292f33;fill-opacity:1"/><path fill="#3E721D" d="M11.647 29.647a1.059 1.059 0 0 1-.336-2.063c.095-.033 2.453-.877 2.453-3.231s-2.358-3.198-2.458-3.232a1.062 1.062 0 0 1-.659-1.342c.187-.552.78-.852 1.334-.665.159.053 3.9 1.344 3.9 5.239s-3.741 5.187-3.9 5.239c-.11.037-.223.055-.334.055zm12.705 0c-.111 0-.223-.018-.334-.055-.159-.053-3.9-1.344-3.9-5.239s3.741-5.187 3.9-5.239a1.059 1.059 0 0 1 .675 2.007c-.1.034-2.458.878-2.458 3.232s2.358 3.198 2.458 3.232a1.058 1.058 0 0 1-.341 2.062z"/></svg>