<svg xmlns="http://www.w3.org/2000/svg" viewBox="0 0 36 36"><path fill="#65471B" d="M18.625 20.937c-3.543.759-5.981.85-9.01.908-.691.015-1.955.419-1.536 2.375.838 3.911 6.379 7.837 12.642 6.495 6.262-1.342 9.708-7.194 8.87-11.105-.419-1.956-1.739-1.808-2.375-1.536-2.786 1.187-5.048 2.104-8.591 2.863z"/><path fill="#E8596E" d="M11 24.004v6c0 3 2 6 6 6s6-3 6-6v-6H11z"/><path fill="#DD2F45" d="M17 31.883a.545.545 0 0 0 .545-.545v-6.295h-1.091v6.295a.546.546 0 0 0 .546.545z"/><path fill="#FFF" d="M10.034 23.801s3.143.349 9.01-.908c5.867-1.257 8.591-2.864 8.591-2.864s-1.117 4.33-7.962 5.797c-6.845 1.467-9.639-2.025-9.639-2.025z"/></svg>