<svg xmlns="http://www.w3.org/2000/svg" viewBox="0 0 36 36"><path d="M18 27.136c3.335 0 5.547.388 8.284.92.625.12 1.841 0 1.841-1.841 0-3.682-4.23-8.284-10.125-8.284S7.875 22.533 7.875 26.215c0 1.841 1.216 1.962 1.841 1.841 2.736-.532 4.949-.92 8.284-.92z" style="fill:#65471b;fill-opacity:1"/><path fill="#77AF57" d="M25.712 32.287v-7.101c0-2.593-3.889-5.185-7.778-5.185s-7.778 2.593-7.778 5.185v7.101c-4.403.349-7.359.985-7.359 1.713 0 1.105 6.777 2 15.137 2s15.137-.895 15.137-2c0-.728-2.956-1.364-7.359-1.713z"/><circle fill="#5D8F3F" cx="15.875" cy="23.228" r="1.235"/><circle fill="#5D8F3F" cx="20.698" cy="25.64" r="1.235"/><circle transform="rotate(-80.781 21.232 30.514)" fill="#5D8F3F" cx="21.232" cy="30.515" r="1.235"/><circle transform="rotate(-80.781 15.107 32.548)" fill="#5D8F3F" cx="15.107" cy="32.548" r="1.765"/></svg>