<svg xmlns="http://www.w3.org/2000/svg" viewBox="0 0 36 36"><ellipse fill="#664500" cx="17.999" cy="26" rx="2" ry="2.5"/><path fill="#E2A62D" d="M13.346 31.273a.75.75 0 0 1-.722-.954c.437-1.54.258-3.029-.49-4.086-.497-.702-1.205-1.131-1.943-1.178-.414-.025-.728-.382-.702-.795s.381-.751.795-.701c1.193.074 2.313.733 3.073 1.807 1.011 1.429 1.27 3.383.709 5.361a.749.749 0 0 1-.72.546zm11.037-3.061a.744.744 0 0 1-.412-.124c-1.167-.77-1.82-2.117-1.792-3.695.029-1.635.809-3.153 1.984-3.869a.748.748 0 0 1 1.03.251.748.748 0 0 1-.251 1.03c-.735.448-1.244 1.499-1.264 2.614-.02 1.055.389 1.936 1.118 2.417a.75.75 0 0 1-.413 1.376z"/></svg>