<svg xmlns="http://www.w3.org/2000/svg" viewBox="0 0 36 36"><path fill="#664500" d="M23.186 29.526c-.993 0-1.952-.455-2.788-1.339-2.816-2.985-3.569-2.333-4.817-1.251-.781.679-1.754 1.523-3.205 1.523-2.351 0-3.969-2.302-4.036-2.4a1 1 0 0 1 1.644-1.14c.301.429 1.317 1.54 2.393 1.54.704 0 1.256-.479 1.895-1.033 1.816-1.578 3.764-2.655 7.583 1.388.823.873 1.452.774 1.908.592 1.659-.665 3.205-3.698 3.197-5.15a1 1 0 0 1 .994-1.005h.006a1 1 0 0 1 1 .995c.012 2.103-1.854 5.976-4.454 7.017a3.601 3.601 0 0 1-1.32.263z"/></svg>