<svg xmlns="http://www.w3.org/2000/svg" viewBox="0 0 36 36"><path d="M26.125 29.261a.339.339 0 0 1-.084-.01c-8.424-1.942-15.996-.022-16.072-.002a.381.381 0 0 1-.324-.066.38.38 0 0 1-.145-.297c0-3.178 3.713-6.872 8.5-6.872s8.5 3.694 8.5 6.872a.375.375 0 0 1-.375.375z" style="fill:#292f33;fill-opacity:1"/><path fill="#F4ABBA" d="M18.629 23.079v.827l-1.091.001v-.837c-2.277.127-4.191 1.162-5.455 2.516l.008.461c.086 2.932 2.08 5.802 5.992 5.802 3.899 0 5.892-2.851 5.991-5.773l.009-.284a8.057 8.057 0 0 0-5.454-2.713z"/><path fill="#EA596E" d="M18 23.049c-.157 0-.308.014-.462.022v4.447a.545.545 0 1 0 1.09 0V23.08a7.61 7.61 0 0 0-.628-.031z"/></svg>