<svg xmlns="http://www.w3.org/2000/svg" viewBox="0 0 36 36"><path fill="#292F33" d="M21.614 28.372c-.689-.562-1.629.184-3.639.184s-2.95-.746-3.639-.184c-.689.562.585 2.308 3.639 2.308s4.328-1.746 3.639-2.308z"/><path fill="#66757F" d="M13.165 24.769a.773.773 0 0 1-.391-.107c-3.002-1.792-8.357-.913-9.664-.286A.763.763 0 1 1 2.449 23c1.744-.838 7.624-1.725 11.107.35a.763.763 0 0 1-.391 1.419z"/><path fill="#66757F" d="M2.141 29.702a.763.763 0 0 1-.594-1.242c1.455-1.807 4.896-4.888 11.581-5.216.419-.035.779.304.8.725a.764.764 0 0 1-.725.8c-6.089.299-9.171 3.041-10.467 4.649a.763.763 0 0 1-.595.284zm31.669 0a.76.76 0 0 1-.594-.284c-1.295-1.608-4.377-4.35-10.467-4.649a.765.765 0 0 1-.725-.8c.021-.42.383-.763.8-.725 6.685.328 10.124 3.409 11.58 5.216a.763.763 0 0 1-.594 1.242z"/><path fill="#66757F" d="M22.787 24.769a.764.764 0 0 1-.393-1.42c3.482-2.076 9.366-1.188 11.107-.35a.761.761 0 0 1 .358 1.018.758.758 0 0 1-1.018.358c-1.31-.628-6.664-1.505-9.664.286a.751.751 0 0 1-.39.108z"/><path fill="#292F33" d="M21.614 22.244c0 1.765-2.539 3.223-3.639 3.223-1.1 0-3.639-1.458-3.639-3.223s1.629-1.81 3.639-1.81 3.639.045 3.639 1.81z"/></svg>