<svg xmlns="http://www.w3.org/2000/svg" viewBox="0 0 36 36"><path d="M22.463 12.055a4.046 4.046 0 0 0-1.754.6c-1.843 1.148-1.859 4.754-1.512 7.783 1.525.559 4.39 1.69 6.782 3.177.322-.276.646-.579.972-.945 4.417-4.961-.265-11.034-4.488-10.615zm-8.95.011c-4.223-.42-8.906 5.654-4.49 10.616.327.367.653.67.977.947 2.376-1.483 5.235-2.617 6.777-3.184.347-3.028.333-6.633-1.51-7.78a4.042 4.042 0 0 0-1.753-.599z" style="fill:#272b2b;fill-opacity:1"/><path fill="#66757F" d="M11 17s0-2 2-2 2 2 2 2v2s0 2-2 2-2-2-2-2v-2zM21 17s0-2 2-2 2 2 2 2v2s0 2-2 2-2-2-2-2v-2z"/></svg>