<svg xmlns="http://www.w3.org/2000/svg" viewBox="0 0 36 36"><path fill="#55ACEE" d="m13.496 14.984-2.38-.506a3.05 3.05 0 0 0-3.607 2.342 3.05 3.05 0 0 0 2.342 3.607l2.38.506a3.05 3.05 0 0 0 3.607-2.342 3.05 3.05 0 0 0-2.342-3.607zm9.008-.239 2.38-.506a3.05 3.05 0 0 1 3.607 2.342 3.05 3.05 0 0 1-2.342 3.607l-2.38.506a3.05 3.05 0 0 1-3.607-2.342 3.05 3.05 0 0 1 2.342-3.607z"/><path fill="#FFCC4D" d="m13.737 15.47-1.956-.416a2.507 2.507 0 0 0-2.965 1.926 2.507 2.507 0 0 0 1.926 2.965l1.956.416a2.507 2.507 0 0 0 2.965-1.926 2.509 2.509 0 0 0-1.926-2.965z"/><circle fill="#292F33" cx="12.739" cy="17.708" r="1.5"/><path fill="#FFCC4D" d="m22.263 15.47 1.956-.416a2.507 2.507 0 0 1 2.965 1.926 2.507 2.507 0 0 1-1.925 2.965l-1.956.416a2.507 2.507 0 0 1-2.965-1.926 2.507 2.507 0 0 1 1.925-2.965z"/><circle fill="#292F33" cx="23.261" cy="17.708" r="1.5"/><path fill="#292F33" d="M15 16c-4.254 0-7.422-2.08-7.555-2.168a1 1 0 0 1 1.108-1.666C8.581 12.185 11.372 14 15 14a1 1 0 0 1 0 2zm6 0a1 1 0 1 1 0-2c3.655 0 6.418-1.814 6.445-1.832a1 1 0 1 1 1.11 1.664C28.422 13.92 25.254 16 21 16z"/></svg>