<svg xmlns="http://www.w3.org/2000/svg" viewBox="0 0 36 36"><path d="M29 17a1 1 0 0 0 .893-1.447C29.841 15.448 28.575 13 24.999 13c-3.577 0-4.842 2.449-4.894 2.553a1.001 1.001 0 0 0 1.783.906c.044-.081.831-1.459 3.111-1.459 2.317 0 3.099 1.433 3.106 1.447A.998.998 0 0 0 29 17ZM6.999 17a1 1 0 0 1-.893-1.447C6.158 15.448 7.424 13 11 13c3.577 0 4.842 2.449 4.894 2.553a1.001 1.001 0 0 1-1.783.906C14.067 16.378 13.28 15 11 15c-2.317 0-3.099 1.433-3.106 1.447a.998.998 0 0 1-.895.553Z" style="fill:#664500;fill-opacity:1"/></svg>