<svg xmlns="http://www.w3.org/2000/svg" viewBox="0 0 36 36"><path d="M28.001 15a1 1 0 0 1-.896-.553C27.08 14.401 26.299 13 24 13s-3.08 1.401-3.112 1.46c-.26.481-.859.67-1.345.42a.994.994 0 0 1-.438-1.328C19.157 13.449 20.423 11 24 11c3.577 0 4.843 2.449 4.895 2.553A1 1 0 0 1 28.001 15ZM7.999 15a1 1 0 0 1-.893-1.448C7.158 13.448 8.424 11 12 11c3.577 0 4.842 2.449 4.894 2.553a1 1 0 0 1-1.783.906C15.068 14.379 14.281 13 12 13c-2.317 0-3.099 1.433-3.106 1.447a.998.998 0 0 1-.895.553Z" style="fill:#664500;fill-opacity:1"/></svg>