<svg xmlns="http://www.w3.org/2000/svg" viewBox="0 0 36 36"><ellipse fill="#664500" cx="11.5" cy="16.5" rx="2.5" ry="3.5"/><path d="M29.001 14.583a.998.998 0 0 1-.801-.4c-2.592-3.457-6.961-2.627-7.004-2.62a1 1 0 0 1-.393-1.961c.231-.047 5.657-1.072 8.996 3.38a1 1 0 0 1-.798 1.601zM5.999 12.458a1 1 0 0 1-.799-1.6c3.262-4.35 7.616-4.4 7.8-4.4a1 1 0 0 1 .004 2c-.156.002-3.569.086-6.205 3.6a.995.995 0 0 1-.8.4zM28.457 17.797c-.06-.135-1.499-3.297-4.457-3.297-2.957 0-4.397 3.162-4.457 3.297a.503.503 0 0 0 .755.605c.012-.009 1.262-.902 3.702-.902 2.426 0 3.674.881 3.702.901a.498.498 0 0 0 .755-.604z" style="fill:#664500;fill-opacity:1"/></svg>