<svg xmlns="http://www.w3.org/2000/svg" viewBox="0 0 36 36"><path fill-rule="evenodd" clip-rule="evenodd" fill="#292F33" d="M1.24 11.018c.24.239 1.438.957 1.677 1.675.24.717.72 4.784 2.158 5.981 1.483 1.232 7.077.774 8.148.24 2.397-1.195 2.691-4.531 3.115-6.221.239-.957 1.677-.957 1.677-.957s1.438 0 1.678.956c.424 1.691.72 5.027 3.115 6.221 1.072.535 6.666.994 8.151-.238 1.436-1.197 1.915-5.264 2.155-5.982.238-.717 1.438-1.435 1.677-1.674.241-.239.241-1.196 0-1.436-.479-.478-6.134-.904-12.223-.239-1.215.133-1.677.478-4.554.478-2.875 0-3.339-.346-4.553-.478-6.085-.666-11.741-.24-12.221.238-.239.239-.239 1.197 0 1.436z"/></svg>