<svg xmlns="http://www.w3.org/2000/svg" viewBox="0 0 36 36"><path d="M16 16a1 1 0 0 0-1-1H8a1 1 0 0 0 0 2h5.092a1.496 1.496 0 0 0 2.872-.821c.011-.06.036-.116.036-.179ZM29 16a1 1 0 0 0-1-1h-7a1 1 0 1 0 0 2h5.092a1.496 1.496 0 0 0 2.872-.821c.012-.06.036-.116.036-.179ZM6.999 14a1 1 0 0 1-.799-1.6c2.801-3.734 7.317-2.456 9.314-1.257a1 1 0 0 1-1.027 1.716c-.179-.106-4.274-2.475-6.688.742a.997.997 0 0 1-.8.399ZM29.001 14a.998.998 0 0 1-.801-.4c-2.432-3.244-6.514-.846-6.686-.743a1 1 0 1 1-1.029-1.715c1.998-1.199 6.514-2.477 9.314 1.257A1 1 0 0 1 29.001 14Z" style="fill:#664500;fill-opacity:1"/></svg>