<svg xmlns="http://www.w3.org/2000/svg" viewBox="0 0 36 36"><path d="M24.774 15.512c.317 0 .636.039.947.116 2.87.707 3.513 4.121 3.539 4.267a.5.5 0 0 1-.877.407c-.01-.012-1.01-1.178-3.379-1.761a8.698 8.698 0 0 0-2.073-.265c-1.104 0-1.731.253-1.735.254a.511.511 0 0 1-.206.04.5.5 0 0 1-.306-.902c.366-.435 1.952-2.156 4.09-2.156zM11.226 15.512c-.317 0-.636.039-.947.116-2.87.707-3.513 4.121-3.539 4.267a.5.5 0 0 0 .877.407c.01-.012 1.01-1.178 3.379-1.761a8.698 8.698 0 0 1 2.073-.265c1.104 0 1.732.253 1.735.254.067.028.131.04.207.04a.5.5 0 0 0 .306-.902c-.367-.435-1.953-2.156-4.091-2.156z" style="fill:#664500;fill-opacity:1"/></svg>