<svg xmlns="http://www.w3.org/2000/svg" viewBox="0 0 36 36"><ellipse fill="#664500" cx="11.5" cy="15.5" rx="2.5" ry="3.5"/><path d="M29.001 14a.998.998 0 0 1-.801-.4c-2.592-3.456-6.961-2.628-7.004-2.62a.998.998 0 0 1-1.177-.784 1.001 1.001 0 0 1 .784-1.177c.231-.047 5.657-1.072 8.996 3.38A1 1 0 0 1 29.001 14ZM5.999 11A1 1 0 0 1 5.2 9.4C8.462 5.05 12.816 5 13 5a1 1 0 0 1 .004 2c-.155.002-3.568.086-6.204 3.6a.998.998 0 0 1-.801.4ZM28.457 17.797c-.06-.135-1.499-3.297-4.457-3.297-2.957 0-4.397 3.162-4.457 3.297a.503.503 0 0 0 .755.605c.012-.009 1.262-.902 3.702-.902 2.426 0 3.674.881 3.702.901a.498.498 0 0 0 .755-.604z" style="fill:#664500;fill-opacity:1"/></svg>