<svg xmlns="http://www.w3.org/2000/svg" viewBox="0 0 36 36"><path d="M29.999 22.999a.998.998 0 0 1-.598-.198C29.363 22.772 25.59 20 21 20a.999.999 0 0 1-.707-1.707C23.549 15.038 28.779 15 29 15a1 1 0 0 1 .002 2c-.036 0-2.783.027-5.258 1.268 3.905.75 6.713 2.825 6.855 2.933a1 1 0 0 1-.6 1.798zM6.001 23a1 1 0 0 1-.601-1.799c.143-.107 2.951-2.183 6.856-2.933C9.781 17.027 7.034 17 6.999 17A1 1 0 0 1 7 15c.221 0 5.452.038 8.707 3.293A1 1 0 0 1 15 20c-4.613 0-8.363 2.772-8.4 2.8a.996.996 0 0 1-.599.2ZM7 10a1 1 0 0 1 0-2c5.083 0 5.996-3.12 6.033-3.253a1.007 1.007 0 0 1 1.219-.709c.53.139.851.673.718 1.205C14.921 5.437 13.704 10 7 10ZM29 10c-5.554 0-7.802-4.367-7.895-4.553a1 1 0 0 1 1.787-.899C22.967 4.694 24.713 8 29 8a1 1 0 1 1 0 2z" style="fill:#664500;fill-opacity:1"/></svg>