<svg xmlns="http://www.w3.org/2000/svg" viewBox="0 0 36 36"><path d="M4.999 16a1 1 0 0 1-.799-1.6C7.462 10.05 11.816 10 12 10a1 1 0 0 1 .004 2c-.156.002-3.569.086-6.205 3.6a.995.995 0 0 1-.8.4zM31.001 16a.998.998 0 0 1-.801-.4c-2.641-3.521-6.061-3.599-6.206-3.6a1.002 1.002 0 0 1-.991-1.005A.997.997 0 0 1 24 10c.184 0 4.537.05 7.8 4.4a1 1 0 0 1-.799 1.6zM28.345 17.64a.5.5 0 0 0-.643-.042c-.012.009-1.262.902-3.702.902-2.441 0-3.69-.893-3.7-.9a.499.499 0 0 0-.716.678c.061.09 1.515 2.222 4.416 2.222 2.9 0 4.355-2.132 4.416-2.223a.498.498 0 0 0-.071-.637zM15.703 17.598c-.013.009-1.262.902-3.703.902-2.442 0-3.69-.893-3.7-.9a.499.499 0 0 0-.716.678c.061.09 1.515 2.222 4.416 2.222 2.9 0 4.355-2.132 4.416-2.223a.5.5 0 0 0-.713-.679z" style="fill:#664500;fill-opacity:1"/></svg>