<svg xmlns="http://www.w3.org/2000/svg" viewBox="0 0 36 36"><path d="M29 14c-.221 0-5.451.038-8.707 3.293A.999.999 0 0 0 21 19c.013 0 .024-.007.036-.007-.016.167-.036.333-.036.507 0 1.934 1.119 3.5 2.5 3.5s2.5-1.566 2.5-3.5c0-1.129-.389-2.123-.982-2.763A13.928 13.928 0 0 1 29.002 16 1 1 0 0 0 29 14ZM15.707 17.293C12.452 14.038 7.221 14 7 14a1.001 1.001 0 0 0-.001 2c.029 0 1.925.022 3.983.737-.593.64-.982 1.634-.982 2.763 0 1.934 1.119 3.5 2.5 3.5s2.5-1.566 2.5-3.5c0-.174-.019-.34-.037-.507.013 0 .025.007.037.007a.999.999 0 0 0 .707-1.707z" style="fill:#292f33;fill-opacity:1"/></svg>