<svg xmlns="http://www.w3.org/2000/svg" viewBox="0 0 36 36"><path d="M24.591 17.892c-1.172 0-2.545-.251-4.038-.998a1 1 0 0 1 .895-1.789c3.4 1.7 5.899.126 6.004.059a1.004 1.004 0 0 1 1.382.289.997.997 0 0 1-.278 1.379c-.096.063-1.631 1.06-3.965 1.06zM11.41 17.892c-2.335 0-3.87-.997-3.964-1.06a1 1 0 0 1 1.11-1.664c.099.064 2.602 1.636 5.998-.062a1 1 0 0 1 .895 1.789c-1.495.746-2.868.997-4.039.997zM15.999 13a1 1 0 0 1-.985-.833C14.977 11.957 14.059 7 9 7a1 1 0 0 1 0-2c5.416 0 7.592 4.471 7.986 6.835A1 1 0 0 1 15.999 13ZM20.001 13a1 1 0 0 1-.987-1.165C19.407 9.471 21.584 5 27 5a1 1 0 1 1 0 2c-5.095 0-5.979 4.954-6.014 5.165a1 1 0 0 1-.985.835Z" style="fill:#664500;fill-opacity:1"/></svg>