<svg xmlns="http://www.w3.org/2000/svg" viewBox="0 0 36 36"><path d="M6 15a1.001 1.001 0 0 1-.372-1.929c4.612-1.844 6.523-4.602 6.542-4.629a1.002 1.002 0 0 1 1.387-.27.998.998 0 0 1 .275 1.383c-.089.133-2.232 3.283-7.46 5.374A1.015 1.015 0 0 1 6 15ZM30 15a.987.987 0 0 1-.371-.072c-5.229-2.091-7.372-5.241-7.461-5.374a1 1 0 0 1 1.662-1.113c.019.027 1.93 2.785 6.541 4.629A1 1 0 0 1 30 15Z" style="fill:#664500;fill-opacity:1"/><path fill="#664500" d="M14.999 18c-.15 0-.303-.034-.446-.105-3.512-1.756-7.07-.018-7.105 0a1 1 0 1 1-.895-1.789c.182-.09 4.498-2.197 8.895 0A1 1 0 0 1 14.999 18zm14 0c-.15 0-.303-.034-.446-.105-3.513-1.756-7.07-.018-7.105 0a1 1 0 1 1-.895-1.789c.182-.09 4.501-2.196 8.895 0A1 1 0 0 1 28.999 18z"/></svg>