<svg xmlns="http://www.w3.org/2000/svg" viewBox="0 0 36 36"><ellipse fill="#664500" cx="11.5" cy="16.5" rx="2.5" ry="3.5"/><ellipse fill="#664500" cx="24.5" cy="16.5" rx="2.5" ry="3.5"/><path d="M30.001 12a.998.998 0 0 1-.801-.4c-2.64-3.521-6.061-3.598-6.206-3.6a1.002 1.002 0 0 1-.991-1.005A.997.997 0 0 1 23 6c.184 0 4.537.05 7.8 4.4a1 1 0 0 1-.799 1.6zM5.999 12a1 1 0 0 1-.799-1.6C8.462 6.05 12.816 6 13 6a1 1 0 0 1 .004 2c-.155.002-3.568.086-6.204 3.6a.998.998 0 0 1-.801.4Z" style="fill:#664500;fill-opacity:1"/></svg>