<svg xmlns="http://www.w3.org/2000/svg" viewBox="0 0 36 36"><circle fill="#F5F8FA" cx="24.5" cy="16.5" r="5.5"/><circle fill="#F5F8FA" cx="11.5" cy="16.5" r="5.5"/><circle fill="#292F33" cx="11.5" cy="16.5" r="2.5"/><circle fill="#292F33" cx="24.5" cy="16.5" r="2.5"/><path d="M5.999 11A1 1 0 0 1 5.2 9.4C8.462 5.05 12.816 5 13 5a1 1 0 0 1 .004 2c-.155.002-3.568.086-6.204 3.6a.998.998 0 0 1-.801.4ZM30.001 11a.998.998 0 0 1-.801-.4c-2.64-3.521-6.061-3.598-6.206-3.6a1.002 1.002 0 0 1-.991-1.005A.997.997 0 0 1 23 5c.184 0 4.537.05 7.8 4.4a1 1 0 0 1-.799 1.6z" style="fill:#664500;fill-opacity:1"/></svg>