<svg xmlns="http://www.w3.org/2000/svg" viewBox="0 0 36 36"><g fill="#292F33"><ellipse cx="12" cy="14.5" rx="2" ry="3.5"/><ellipse cx="24" cy="14.5" rx="2" ry="3.5"/><path d="M21.137 13.031a.87.87 0 0 1-.547-.45 1.07 1.07 0 0 1 .366-1.366c4.834-3.099 8.616-2.136 8.775-2.093.486.13.764.668.621 1.202-.142.532-.65.859-1.135.731-.058-.015-3.27-.777-7.383 1.859a.858.858 0 0 1-.697.117zm-6.274.001a.872.872 0 0 1-.698-.116c-4.13-2.647-7.352-1.867-7.384-1.859-.486.124-.993-.205-1.133-.737s.136-1.066.62-1.196c.159-.042 3.941-1.005 8.775 2.093.445.285.609.896.366 1.366a.87.87 0 0 1-.546.449z"/></g></svg>