<svg xmlns="http://www.w3.org/2000/svg" viewBox="0 0 36 36"><path d="M4.999 16a1 1 0 0 1-.799-1.6C7.462 10.05 11.816 10 12 10a1 1 0 0 1 .004 2c-.156.002-3.569.086-6.205 3.6a.995.995 0 0 1-.8.4zM31.001 16a.998.998 0 0 1-.801-.4c-2.641-3.521-6.061-3.599-6.206-3.6a1.002 1.002 0 0 1-.991-1.005A.997.997 0 0 1 24 10c.184 0 4.537.05 7.8 4.4a1 1 0 0 1-.799 1.6zM16.416 17.723C16.355 17.632 14.901 15.5 12 15.5c-2.9 0-4.355 2.132-4.416 2.223a.5.5 0 0 0 .713.68c.013-.01 1.262-.903 3.703-.903 2.426 0 3.674.881 3.702.901a.5.5 0 0 0 .714-.678zM28.416 17.723C28.355 17.632 26.901 15.5 24 15.5c-2.9 0-4.355 2.132-4.416 2.223a.499.499 0 0 0 .071.638.504.504 0 0 0 .643.042c.012-.01 1.262-.903 3.702-.903 2.426 0 3.674.881 3.702.901a.5.5 0 0 0 .714-.678z" style="fill:#292f33;fill-opacity:1"/></svg>