<svg xmlns="http://www.w3.org/2000/svg" viewBox="0 0 36 36"><path fill="#FFCC4D" d="M4.934 5.603C4.934 4.189 11 7 10 8s-2 1.603-3 2.603-2.066-4-2.066-5zm26.132 0C31.066 4.189 25 7 26 8s2 1.603 3 2.603 2.066-4 2.066-5z"/><path d="M16.226 5.117a4.67 4.67 0 0 0-5.956-2.85 4.663 4.663 0 0 0-2.928 3.104 4.666 4.666 0 0 0-7.075 5.376c.122.345.284.663.472.958 1.951 3.582 7.588 6.1 11.002 6.131 2.637-2.167 5.445-7.664 4.717-11.677a4.754 4.754 0 0 0-.232-1.042zm3.548 0a4.667 4.667 0 0 1 8.885.254 4.666 4.666 0 0 1 4.225-.58 4.67 4.67 0 0 1 2.85 5.956 4.694 4.694 0 0 1-.473.958c-1.951 3.582-7.588 6.1-11.002 6.131-2.637-2.167-5.445-7.664-4.717-11.677.038-.349.113-.698.232-1.042z" fill="#DD2E44"/></svg>