<svg xmlns="http://www.w3.org/2000/svg" viewBox="0 0 36 36"><path style="fill:#65471b" d="M15.244 11.174a2.125 2.656 0 0 1-2.125 2.656 2.125 2.656 0 0 1-2.125-2.656 2.125 2.656 0 0 1 2.125-2.656 2.125 2.656 0 0 1 2.125 2.656ZM26.5 12.236a2.125 2.656 0 0 1-2.125 2.656 2.125 2.656 0 0 1-2.125-2.656 2.125 2.656 0 0 1 2.125-2.656 2.125 2.656 0 0 1 2.125 2.656Z"/><path d="M21.431 10.101a.924.924 0 0 1-.362-.424.8.8 0 0 1 .468-1.084c4.381-1.536 7.685.48 7.823.567.415.26.555.787.312 1.178-.242.39-.776.495-1.191.238-.12-.072-2.727-1.621-6.267-.379a.924.924 0 0 1-.783-.096zM9.296 6.351a.925.925 0 0 1-.391-.399.8.8 0 0 1 .393-1.112c4.266-1.831 7.699-.043 7.843.034.433.231.608.747.391 1.154-.216.405-.74.546-1.173.318-.123-.063-2.832-1.432-6.278.047a.915.915 0 0 1-.785-.042Z" style="fill:#65471b;fill-opacity:1"/></svg>