<svg xmlns="http://www.w3.org/2000/svg" viewBox="0 0 36 36"><path fill="#664500" d="M27.539 11.239c-.051-.122-1.285-2.983-3.821-2.983-2.534 0-3.768 2.86-3.82 2.983a.468.468 0 0 0 .124.536.414.414 0 0 0 .523.012c.01-.01 1.08-.816 3.173-.816 2.079 0 3.149.797 3.174.816a.412.412 0 0 0 .522-.01.468.468 0 0 0 .125-.538zm-11 0c-.052-.122-1.285-2.983-3.821-2.983-2.534 0-3.768 2.86-3.82 2.983a.468.468 0 0 0 .124.536c.15.128.366.132.523.012.01-.01 1.08-.816 3.173-.816 2.08 0 3.149.797 3.173.816a.414.414 0 0 0 .255.089.417.417 0 0 0 .267-.1.469.469 0 0 0 .126-.537z"/></svg>