<svg xmlns="http://www.w3.org/2000/svg" viewBox="0 0 36 36"><path d="M14.756 11.534c-.056 0-6.583 1.202-6.827 1.502a.257.257 0 0 0-.052.213c.389 1.84 1.939 3.176 3.686 3.176.236 0 .474-.025.707-.074 1.972-.417 3.211-2.486 2.762-4.613-.024-.115-.157-.204-.276-.204zM28.028 13.036c-.244-.3-6.771-1.502-6.826-1.502-.118 0-.251.089-.275.205a4.073 4.073 0 0 0 .466 2.941c.521.876 1.337 1.47 2.296 1.673.232.049.471.074.707.074 1.746 0 3.296-1.336 3.686-3.177a.265.265 0 0 0-.054-.214z" style="fill:#292f33;fill-opacity:1"/></svg>