<svg xmlns="http://www.w3.org/2000/svg" viewBox="0 0 36 36"><path fill="#E95F28" d="m15.682 4.413-4.542.801L8.8.961a1.252 1.252 0 0 0-2.331.411l-.745 4.797-4.542.801a1.25 1.25 0 0 0-.318 2.361l4.07 1.932-.748 4.812a1.253 1.253 0 0 0 1.235 1.442c.327 0 .65-.128.891-.372l3.512-3.561 4.518 2.145a1.25 1.25 0 0 0 1.631-1.731L13.625 9.73l3.165-3.208a1.252 1.252 0 0 0-1.108-2.109zm4.636 0 4.542.801L27.2.961a1.251 1.251 0 0 1 2.33.411l.745 4.797 4.542.801c.536.094.949.524 1.021 1.063s-.211 1.063-.703 1.297l-4.07 1.932.748 4.812a1.253 1.253 0 0 1-1.235 1.442c-.327 0-.65-.128-.891-.372l-3.512-3.561-4.518 2.145a1.25 1.25 0 0 1-1.631-1.731l2.348-4.267-3.165-3.208a1.252 1.252 0 0 1-.217-1.459 1.259 1.259 0 0 1 1.326-.65z"/></svg>