<svg xmlns="http://www.w3.org/2000/svg" viewBox="0 0 36 36"><path d="M6.114 10.271a1.062 1.062 0 0 1-.849-1.7c3.466-4.622 8.092-4.675 8.287-4.675a1.062 1.062 0 0 1 .004 2.125c-.166.002-3.792.091-6.592 3.825a1.06 1.06 0 0 1-.85.425zM21.778 13.222c0 1.391.846 2.519 1.889 2.519 1.043 0 1.889-1.127 1.889-2.519 0-1.391-.845-2.519-1.889-2.519-1.044.001-1.889 1.128-1.889 2.519zM29.886 10.271a1.061 1.061 0 0 0 .849-1.7c-3.466-4.622-8.092-4.675-8.287-4.675a1.062 1.062 0 0 0-.004 2.125c.166.002 3.792.091 6.592 3.825.208.278.527.425.85.425zM14.222 13.222c0 1.391-.846 2.519-1.889 2.519-1.043 0-1.889-1.127-1.889-2.519 0-1.391.845-2.519 1.889-2.519 1.043.001 1.889 1.128 1.889 2.519z" style="fill:#65471b;fill-opacity:1"/></svg>