<svg xmlns="http://www.w3.org/2000/svg" viewBox="0 0 36 36"><path d="M15.834 14.443c-3.074-3.075-8.014-3.11-8.223-3.11a.944.944 0 0 0-.002 1.889c.025 0 1.472.015 3.174.506a1.408 1.408 0 0 0-.339.91c0 .116.018.228.044.336-2.565.867-4.281 2.133-4.389 2.214a.944.944 0 0 0 1.133 1.511c.035-.026 3.576-2.644 7.933-2.644.382 0 .726-.23.872-.583a.939.939 0 0 0-.203-1.029zM29.9 17.189c-.108-.081-1.823-1.347-4.388-2.214.026-.108.044-.22.044-.336 0-.349-.131-.664-.339-.91a13.044 13.044 0 0 1 3.175-.506.945.945 0 0 0-.002-1.889c-.208 0-5.148.036-8.223 3.11a.945.945 0 0 0 .667 1.612c4.335 0 7.899 2.618 7.935 2.645a.945.945 0 0 0 1.131-1.512z" style="fill:#65471b;fill-opacity:1"/></svg>