<svg xmlns="http://www.w3.org/2000/svg" viewBox="0 0 36 36"><ellipse fill="#664500" cx="12" cy="16.5" rx="2.5" ry="2.75"/><ellipse fill="#664500" cx="24" cy="16.5" rx="2.5" ry="3.5"/><path d="M30.001 10.408c-.368 0-.731-.161-.979-.471-1.395-1.751-4.299-3.287-5.314-3.287-.642 0-1.925.911-2.604 1.568a1.251 1.251 0 0 1-1.743-1.794c.391-.38 2.436-2.275 4.347-2.275 2.005 0 5.538 2.056 7.27 4.229a1.25 1.25 0 0 1-.977 2.03zM7.102 12.559a.996.996 0 0 0 .885.135c4.187-1.355 7.027.554 7.146.636a1.003 1.003 0 0 0 1.39-.25.998.998 0 0 0-.241-1.388c-.15-.106-3.736-2.575-8.91-.901a.998.998 0 0 0-.27 1.768z" style="fill:#664500;fill-opacity:1"/></svg>