<svg xmlns="http://www.w3.org/2000/svg" viewBox="0 0 36 36"><path d="M15.707 14.288C12.452 11.033 7.221 10.995 7 10.995a1.001 1.001 0 0 0-.001 2c.026 0 1.558.016 3.361.536-.221.26-.36.595-.36.964 0 .123.019.24.047.356-2.716.918-4.533 2.259-4.647 2.344a.999.999 0 1 0 1.2 1.6c.037-.028 3.787-2.8 8.4-2.8a1.002 1.002 0 0 0 .707-1.707zM30.6 17.195c-.114-.085-1.931-1.426-4.646-2.344.026-.115.046-.233.046-.356 0-.37-.139-.703-.359-.964a13.866 13.866 0 0 1 3.361-.536 1 1 0 0 0-.002-2c-.221 0-5.451.038-8.707 3.293A1 1 0 0 0 21 15.995c4.59 0 8.363 2.772 8.401 2.8a1.003 1.003 0 0 0 1.4-.202 1 1 0 0 0-.201-1.398z" style="fill:#664500;fill-opacity:1"/></svg>