<svg xmlns="http://www.w3.org/2000/svg" viewBox="0 0 36 36"><path d="M26 16.958a.999.999 0 0 1-.948-.684c-.203-.599-1.019-2.316-2.052-2.316-1.062 0-1.889 1.827-2.052 2.316a1 1 0 0 1-1.897-.633c.125-.377 1.304-3.684 3.948-3.684s3.823 3.307 3.948 3.684A1 1 0 0 1 26 16.958zM16 16.958c-.419 0-.809-.265-.949-.684-.203-.599-1.018-2.316-2.051-2.316-1.062 0-1.888 1.827-2.051 2.316a1 1 0 1 1-1.897-.633c.125-.377 1.304-3.684 3.949-3.684 2.645 0 3.823 3.307 3.949 3.684a1 1 0 0 1-.95 1.317z" style="fill:#664500;fill-opacity:1"/></svg>