<svg xmlns="http://www.w3.org/2000/svg" viewBox="0 0 36 36"><path fill="#664500" d="M29 14a.997.997 0 0 1-.707-.293c-2.577-2.575-7.055-1.736-7.099-1.726a.996.996 0 0 1-1.174-.787.998.998 0 0 1 .783-1.174c.227-.046 5.563-1.065 8.903 2.273A.999.999 0 0 1 29 14zM7 14a.999.999 0 0 1-.707-1.707c3.34-3.341 8.678-2.318 8.903-2.273a1 1 0 0 1-.391 1.962c-.069-.015-4.529-.843-7.098 1.726A1 1 0 0 1 7 14zm19 5a.997.997 0 0 1-.707-.293c-1.304-1.305-4.09-.974-5.052-.736a1 1 0 0 1-.483-1.941c.186-.046 4.575-1.111 6.949 1.263A.999.999 0 0 1 26 19zm-16 0a.999.999 0 0 1-.707-1.707c2.373-2.373 6.764-1.309 6.95-1.263a1 1 0 0 1-.483 1.941c-.964-.237-3.749-.567-5.052.736A1.001 1.001 0 0 1 10 19z"/></svg>