<svg xmlns="http://www.w3.org/2000/svg" viewBox="0 0 36 36"><ellipse transform="rotate(-14.999 5.05 17.456)" fill="#D79E84" cx="5.05" cy="17.455" rx="3.818" ry="5.455"/><ellipse transform="rotate(-75.001 31.05 17.455)" fill="#D79E84" cx="31.05" cy="17.455" rx="5.455" ry="3.818"/><path fill="#BF6952" d="M19.018 36h-2.036C10.264 36 3.75 30.848 3.75 23.636c0-4.121 1.527-6.182 1.527-6.182s-.509-2.061-.509-4.121C4.768 7.152 11.282 2 18 2c6.718 0 13.232 6.182 13.232 11.333 0 2.061-.509 4.121-.509 4.121s1.527 2.061 1.527 6.182C32.25 30.848 25.736 36 19.018 36z"/><path fill="#D79E84" d="M30 16.042C30 12.153 26.825 9 22.909 9A7.088 7.088 0 0 0 18 10.968 7.088 7.088 0 0 0 13.091 9C9.175 9 6 12.153 6 16.042c0 2.359 1.172 4.441 2.965 5.719a10.69 10.69 0 0 0-.783 4.031C8.182 31.476 12.578 35 18 35s9.818-3.524 9.818-9.208c0-1.431-.28-2.793-.783-4.031C28.828 20.483 30 18.4 30 16.042z"/><path fill="#BF6952" d="M22.66.175s-5.455-1.091-7.636 2.182 4.364 1.091 4.364 1.091S20.478.175 22.66.175z"/></svg>