<svg xmlns="http://www.w3.org/2000/svg" viewBox="0 0 36 36"><circle fill="#FFCC4D" cx="8.5" cy="9.5" r="8.5"/><circle fill="#FFCC4D" cx="27.5" cy="9.5" r="8.5"/><path fill="#EA596E" d="M13.912 5.854a6.886 6.886 0 0 0-5.443-2.667 6.907 6.907 0 0 0-6.906 6.906 6.9 6.9 0 0 0 3.996 6.256c.709-4.195 3.983-8.672 8.353-10.495zm13.619-2.666a6.884 6.884 0 0 0-5.443 2.667c4.369 1.823 7.643 6.3 8.354 10.496a6.902 6.902 0 0 0-2.911-13.163z"/><path fill="#FFE8B6" d="M34 22.593c-2-10.045-11.333-6.5-16-6.5s-14-3.546-16 6.5c-1.295 6.504 3.794 9.879 9.032 11.387C12.682 35.212 15.19 36 18 36c2.81 0 5.318-.788 6.969-2.021 5.237-1.508 10.326-4.882 9.031-11.386z"/><path fill="#FFCC4D" d="M30.6 18c0 11-5.641 6-12.6 6S5.4 29 5.4 18c0-5.799 5.641-13 12.6-13s12.6 7.201 12.6 13z"/></svg>