<svg xmlns="http://www.w3.org/2000/svg" viewBox="0 0 36 36"><circle fill="#272B2B" cx="7" cy="6" r="6"/><circle fill="#272B2B" cx="29" cy="6" r="6"/><circle fill="#66757F" cx="7" cy="6" r="4"/><circle fill="#66757F" cx="29" cy="6" r="4"/><path fill="#EEE" d="M35 22c0 7-6.375 12-17 12S1 29 1 22C1 22 2.308 0 18 0s17 22 17 22z"/><circle fill="#CCD6DD" cx="18" cy="30" r="6"/><path fill="#FFF" d="M18 20S7 23.687 7 27a6 6 0 0 0 11 3.315A6 6 0 0 0 29 27c0-3.313-11-7-11-7z"/><path fill="#272B2B" d="M13.125 25c-1.624 1 3.25 4 4.875 4s6.499-3 4.874-4-8.124-1-9.749 0z"/></svg>