<svg xmlns="http://www.w3.org/2000/svg" viewBox="0 0 36 36"><path d="M34.193 13.329a5.975 5.975 0 0 0 1.019-1.28c1.686-2.854.27-10.292-.592-10.8-.695-.411-5.529 1.05-8.246 3.132C23.876 2.884 21.031 2 18 2c-3.021 0-5.856.879-8.349 2.367C6.93 2.293 2.119.839 1.424 1.249c-.861.508-2.276 7.947-.592 10.8.278.471.615.884.989 1.249C.666 15.85 0 18.64 0 21.479 0 31.468 8.011 34 18 34s18-2.532 18-12.521c0-2.828-.66-5.606-1.807-8.15z" style="fill:#f4abba;fill-opacity:1"/><path d="M33.753 12.384c.733-3.267.219-7.928-.351-8.265-.398-.235-2.635.578-4.801 1.845a20.345 20.345 0 0 1 5.152 6.42zM7.398 5.965c-2.166-1.267-4.402-2.08-4.8-1.845-.57.337-1.083 4.998-.352 8.265a20.365 20.365 0 0 1 5.152-6.42Z" style="fill:#ea596e;fill-opacity:1"/></svg>