<svg xmlns="http://www.w3.org/2000/svg" viewBox="0 0 36 36"><circle fill="#FFCC4D" cx="18" cy="18" r="18"/><path fill="#FFAC33" d="M33.175 8.316s-9.042.161-15.175.161c-3.905 0-15.206-.118-15.206-.118l-.521.876c3.043 1.856 9.064 2.917 15.727 2.917 6.596 0 12.576-1.04 15.652-2.86l.078-.047s-.374-.664-.555-.929z"/><path fill="#5DADEC" d="M23.777.345a70.63 70.63 0 0 0-3.773-.19A82.683 82.683 0 0 0 18 .129c-.672 0-1.336.01-1.993.025a70.732 70.732 0 0 0-3.777.19C5.34.88.169 2.451.169 5.287c0 3.588 8.264 5.771 17.831 5.771s17.831-2.183 17.831-5.771c0-2.835-5.168-4.405-12.054-4.942zM18 7.383c-6.861 0-12.91-.833-12.91-2.736 0-.536.494-1.023 1.339-1.449 1.153-.581 2.978-1.044 5.189-1.349 1.911-.262 4.098-.41 6.382-.41 2.291 0 4.485.148 6.4.413 2.242.31 4.086.783 5.232 1.377.807.418 1.278.894 1.278 1.418 0 1.903-6.049 2.736-12.91 2.736z"/><path fill="#3B94D9" d="M24.4 1.853c2.242.31 4.086.783 5.232 1.377l.062.017c-2.285-1.674-4.57-2.56-5.917-2.902a70.63 70.63 0 0 0-3.773-.19l.018.007L24.4 1.853zM6.429 3.199c1.153-.581 2.978-1.044 5.189-1.349L15.984.162l.023-.008a70.732 70.732 0 0 0-3.777.19c-1.347.342-3.633 1.227-5.919 2.902l.118-.047z"/><path fill="#FFCC4D" d="M28.472 3.375c-.66-.443-1.346-.91-2.001-1.26A17.907 17.907 0 0 0 18 0c-2.929 0-5.695.7-8.14 1.941-1.089.553-1.881.999-2.17 1.434h20.782z"/></svg>