<svg xmlns="http://www.w3.org/2000/svg" viewBox="0 0 36 36"><path fill="#FFCC4D" d="M35 .3C34.326-.946 27.596 1.988 25 4c0 0-4-.998-7-.998S11 4 11 4C8.404 1.988 1.674-.946 1 .3-1 4 2 13 2 13 1.102 14.796.709 16.328.377 18.987a4.7 4.7 0 0 1 1.265-.157c5.002 0 7.857 8.145 7.352 14.925C12.541 35.401 16.458 36 18 36c1.549 0 5.497-.605 9.058-2.27-.497-6.775 2.357-14.9 7.353-14.9.48 0 .868.058 1.21.145C35.29 16.323 34.897 14.793 34 13c0 0 3-9 1-12.7z"/><path fill="#F18F26" d="M2 3c.447-1.342 5.64 1 6.64 2C8.64 5 4 8 3 11c0 0-2-5-1-8zm32 0c-.447-1.342-5.64 1-6.64 2 0 0 4.64 3 5.64 6 0 0 2-5 1-8z"/><path fill="#FFCC4D" d="M4.934 5.603C4.934 4.189 11 7 10 8s-2 1.603-3 2.603-2.066-4-2.066-5zm26.132 0C31.066 4.189 25 7 26 8s2 1.603 3 2.603 2.066-4 2.066-5z"/></svg>