<svg xmlns="http://www.w3.org/2000/svg" viewBox="0 0 36 36"><path fill="#31373D" d="M5 16c0-4-5-3-4 1s3 5 3 5l1-6zm26 0c0-4 5-3 4 1s-3 5-3 5l-1-6z"/><path fill="#31373D" d="M32.65 21.736c0 10.892-4.691 14.087-14.65 14.087-9.958 0-14.651-3.195-14.651-14.087S8.042.323 18 .323c9.959 0 14.65 10.521 14.65 21.413z"/><path fill="#66757F" d="M27.567 23c1.49-4.458 2.088-7.312-.443-7.312H8.876c-2.532 0-1.933 2.854-.444 7.312C3.504 34.201 17.166 34.823 18 34.823S32.303 33.764 27.567 23zM4.253 16.625c1.403-1.225-1.078-3.766-2.196-2.544-.341.373.921-.188 1.336 1.086.308.942.001 2.208.86 1.458zm27.493 0c-1.402-1.225 1.078-3.766 2.196-2.544.341.373-.921-.188-1.337 1.086-.306.942 0 2.208-.859 1.458z"/></svg>